<svg width="25" height="24" viewBox="0 0 25 24" fill="none" xmlns="http://www.w3.org/2000/svg">
<path d="M22.8167 0H2.36514C1.38545 0 0.593262 0.773438 0.593262 1.72969V22.2656C0.593262 23.2219 1.38545 24 2.36514 24H22.8167C23.7964 24 24.5933 23.2219 24.5933 22.2703V1.72969C24.5933 0.773438 23.7964 0 22.8167 0ZM7.71357 20.4516H4.15107V8.99531H7.71357V20.4516ZM5.93232 7.43438C4.78857 7.43438 3.86514 6.51094 3.86514 5.37188C3.86514 4.23281 4.78857 3.30938 5.93232 3.30938C7.07139 3.30938 7.99482 4.23281 7.99482 5.37188C7.99482 6.50625 7.07139 7.43438 5.93232 7.43438ZM21.0448 20.4516H17.487V14.8828C17.487 13.5562 17.4636 11.8453 15.6354 11.8453C13.7839 11.8453 13.5026 13.2937 13.5026 14.7891V20.4516H9.94951V8.99531H13.362V10.5609H13.4089C13.8823 9.66094 15.0448 8.70938 16.7745 8.70938C20.3792 8.70938 21.0448 11.0813 21.0448 14.1656V20.4516Z" fill="#131312"/>
</svg>
