<svg width="25" height="24" viewBox="0 0 25 24" fill="none" xmlns="http://www.w3.org/2000/svg">
<path fill-rule="evenodd" clip-rule="evenodd" d="M12.8067 0C6.05299 0 0.593262 5.49998 0.593262 12.3042C0.593262 17.7432 4.0915 22.3472 8.94448 23.9767C9.55123 24.0991 9.77347 23.7119 9.77347 23.3862C9.77347 23.1009 9.75347 22.1232 9.75347 21.1044C6.35599 21.8379 5.64849 19.6377 5.64849 19.6377C5.10249 18.2117 4.2935 17.8452 4.2935 17.8452C3.1815 17.0914 4.3745 17.0914 4.3745 17.0914C5.60799 17.1729 6.25524 18.3544 6.25524 18.3544C7.34698 20.2284 9.10623 19.6989 9.81397 19.3729C9.91497 18.5784 10.2387 18.0284 10.5825 17.7229C7.87273 17.4377 5.02174 16.3784 5.02174 11.6522C5.02174 10.3077 5.50674 9.20771 6.27524 8.35222C6.15399 8.04672 5.72924 6.78347 6.39674 5.09273C6.39674 5.09273 7.42798 4.76673 9.75322 6.35572C10.7487 6.08639 11.7754 5.94938 12.8067 5.94823C13.838 5.94823 14.8892 6.09097 15.86 6.35572C18.1854 4.76673 19.2167 5.09273 19.2167 5.09273C19.8842 6.78347 19.4592 8.04672 19.3379 8.35222C20.1267 9.20771 20.5917 10.3077 20.5917 11.6522C20.5917 16.3784 17.7407 17.4172 15.0107 17.7229C15.4557 18.1099 15.8397 18.8432 15.8397 20.0044C15.8397 21.6544 15.8197 22.9787 15.8197 23.3859C15.8197 23.7119 16.0422 24.0991 16.6487 23.9769C21.5017 22.3469 24.9999 17.7432 24.9999 12.3042C25.0199 5.49998 19.5402 0 12.8067 0Z" fill="#131312"/>
</svg>
