<svg width="24" height="18" viewBox="0 0 24 18" fill="none" xmlns="http://www.w3.org/2000/svg">
<path d="M23.2 0.200195H0.8C0.587827 0.200195 0.384344 0.284481 0.234315 0.43451C0.0842854 0.584539 0 0.788022 0 1.0002V17.0002C0 17.2124 0.0842854 17.4159 0.234315 17.5659C0.384344 17.7159 0.587827 17.8002 0.8 17.8002H23.2C23.4122 17.8002 23.6157 17.7159 23.7657 17.5659C23.9157 17.4159 24 17.2124 24 17.0002V1.0002C24 0.788022 23.9157 0.584539 23.7657 0.43451C23.6157 0.284481 23.4122 0.200195 23.2 0.200195ZM22.4 1.8002V4.4366L11.9726 8.1602L1.6 5.19644V1.8002H22.4ZM1.6 16.2002V6.86116L11.7801 9.76972C11.8516 9.78993 11.9256 9.80019 12 9.8002C12.0917 9.8002 12.1828 9.78434 12.2691 9.75332L22.4 6.13516V16.2002H1.6Z" fill="#131312"/>
</svg>
