<svg width="24" height="28" viewBox="0 0 24 28" fill="none" xmlns="http://www.w3.org/2000/svg">
<path d="M15 0H9C6.61386 0.00264685 4.32622 0.951708 2.63896 2.63896C0.951708 4.32622 0.00264685 6.61386 0 9V20C0 20.2652 0.105357 20.5196 0.292893 20.7071C0.48043 20.8946 0.734784 21 1 21H5C5.79538 20.9991 6.55794 20.6828 7.12036 20.1204C7.68278 19.5579 7.99913 18.7954 8 18V14C7.99913 13.2046 7.68278 12.4421 7.12036 11.8796C6.55794 11.3172 5.79538 11.0009 5 11H2V9C2.00214 7.14414 2.74033 5.36491 4.05262 4.05262C5.36491 2.74033 7.14414 2.00214 9 2H15C16.8559 2.00214 18.6351 2.74033 19.9474 4.05262C21.2597 5.36491 21.9979 7.14414 22 9V11H19C18.2046 11.0009 17.4421 11.3172 16.8796 11.8796C16.3172 12.4421 16.0009 13.2046 16 14V18C16.0009 18.7954 16.3172 19.5579 16.8796 20.1204C17.4421 20.6828 18.2046 20.9991 19 21H22V23C21.9998 23.2651 21.8943 23.5194 21.7068 23.7068C21.5194 23.8943 21.2651 23.9998 21 24H15.8157C15.6103 23.4167 15.2293 22.9114 14.7252 22.5533C14.221 22.1952 13.6184 22.0019 13 22H11C10.2044 22 9.44129 22.3161 8.87868 22.8787C8.31607 23.4413 8 24.2044 8 25C8 25.7956 8.31607 26.5587 8.87868 27.1213C9.44129 27.6839 10.2044 28 11 28H13C13.6184 27.9981 14.221 27.8048 14.7252 27.4467C15.2293 27.0886 15.6103 26.5833 15.8157 26H21C21.7954 25.9991 22.5579 25.6828 23.1204 25.1204C23.6828 24.5579 23.9991 23.7954 24 23V9C23.9974 6.61386 23.0483 4.32622 21.361 2.63896C19.6738 0.951708 17.3861 0.00264685 15 0ZM6 14V18C5.99976 18.2651 5.89433 18.5194 5.70684 18.7068C5.51936 18.8943 5.26514 18.9998 5 19H2V13H5C5.26514 13.0002 5.51936 13.1057 5.70684 13.2932C5.89433 13.4806 5.99976 13.7349 6 14ZM13 26H11C10.7348 26 10.4804 25.8946 10.2929 25.7071C10.1054 25.5196 10 25.2652 10 25C10 24.7348 10.1054 24.4804 10.2929 24.2929C10.4804 24.1054 10.7348 24 11 24H13C13.2652 24 13.5196 24.1054 13.7071 24.2929C13.8946 24.4804 14 24.7348 14 25C14 25.2652 13.8946 25.5196 13.7071 25.7071C13.5196 25.8946 13.2652 26 13 26ZM18 18V14C18.0002 13.7349 18.1057 13.4806 18.2932 13.2932C18.4806 13.1057 18.7349 13.0002 19 13H22V19H19C18.7349 18.9998 18.4806 18.8943 18.2932 18.7068C18.1057 18.5194 18.0002 18.2651 18 18Z" fill="#131312"/>
</svg>
